<svg xmlns="http://www.w3.org/2000/svg" xmlns:xlink="http://www.w3.org/1999/xlink" width="1080" zoomAndPan="magnify" viewBox="0 0 810 809.999993" height="1080" preserveAspectRatio="xMidYMid meet" version="1.0"><defs><g/></defs><g fill="#c84557" fill-opacity="1"><g transform="translate(17.531253, 469.945163)"><g><path d="M 107.421875 0 C 105.335938 0 102.671875 -2.484375 99.421875 -7.453125 C 96.171875 -12.421875 91.539062 -20.238281 85.53125 -30.90625 C 84.789062 -32.25 82.734375 -35.894531 79.359375 -41.84375 C 75.992188 -47.789062 72.867188 -52.910156 69.984375 -57.203125 C 67.109375 -61.492188 64.566406 -64.867188 62.359375 -67.328125 L 43.78125 -46.359375 L 43.78125 -10.859375 L 60.515625 -9.015625 L 60.515625 0 L 8.828125 0 L 8.828125 -9.015625 L 24.09375 -10.859375 L 24.09375 -125.265625 L 9.015625 -127.46875 L 9.015625 -136.671875 L 59.046875 -136.671875 L 59.046875 -127.46875 L 43.78125 -125.265625 L 43.78125 -60.890625 L 97.859375 -125.265625 L 82.40625 -127.46875 L 82.40625 -136.671875 L 127.84375 -136.671875 L 127.84375 -127.46875 L 113.671875 -125.265625 L 73.9375 -80.75 C 78.226562 -77.070312 82.796875 -71.738281 87.640625 -64.75 C 92.484375 -57.757812 98.398438 -48.742188 105.390625 -37.703125 C 111.398438 -28.265625 115.785156 -21.550781 118.546875 -17.5625 C 121.304688 -13.582031 123.484375 -11.40625 125.078125 -11.03125 L 133.71875 -9.015625 L 133.71875 0 Z M 107.421875 0 "/></g></g></g><g fill="#c84557" fill-opacity="1"><g transform="translate(151.069856, 469.945163)"><g><path d="M 23.90625 -125.265625 L 9.203125 -127.46875 L 9.203125 -136.671875 L 43.40625 -136.671875 L 104.65625 -46.90625 L 114.96875 -27.40625 L 114.96875 -125.265625 L 98.953125 -127.46875 L 98.953125 -136.671875 L 142.375 -136.671875 L 142.375 -127.46875 L 127.65625 -125.265625 L 127.65625 0 L 113.125 0 L 50.578125 -91.78125 L 36.421875 -116.0625 L 36.421875 -10.859375 L 53.890625 -9.015625 L 53.890625 0 L 9.203125 0 L 9.203125 -9.015625 L 23.90625 -11.03125 Z M 23.90625 -125.265625 "/></g></g></g><g fill="#c84557" fill-opacity="1"><g transform="translate(298.035904, 469.945163)"><g><path d="M 23.734375 -125.265625 L 8.640625 -127.46875 L 8.640625 -136.671875 L 102.265625 -136.671875 L 104.84375 -108.15625 L 94.359375 -108.15625 L 89.03125 -126 L 43.40625 -127.09375 L 43.40625 -75.234375 L 74.125 -75.78125 L 76.703125 -91.046875 L 86.8125 -91.046875 L 86.8125 -48.75 L 76.703125 -48.75 L 74.125 -64.5625 L 43.40625 -65.109375 L 43.40625 -10.296875 L 95.28125 -12.140625 L 105.03125 -35.3125 L 115.875 -32 L 110.546875 0 L 8.46875 0 L 8.46875 -9.015625 L 23.734375 -10.859375 Z M 23.734375 -125.265625 "/></g></g></g><g fill="#c84557" fill-opacity="1"><g transform="translate(417.779184, 469.945163)"><g><path d="M 69.53125 2.015625 C 56.039062 2.015625 44.539062 -0.894531 35.03125 -6.71875 C 25.53125 -12.539062 18.328125 -20.722656 13.421875 -31.265625 C 8.515625 -41.816406 6.0625 -54.203125 6.0625 -68.421875 C 6.0625 -82.160156 8.941406 -94.300781 14.703125 -104.84375 C 20.472656 -115.382812 28.382812 -123.566406 38.4375 -129.390625 C 48.5 -135.222656 59.78125 -138.140625 72.28125 -138.140625 C 81.726562 -138.140625 93.070312 -136.664062 106.3125 -133.71875 L 112.390625 -132.625 L 110.546875 -99.515625 L 98.21875 -99.515625 L 93.625 -122.875 C 91.90625 -124.34375 88.929688 -125.597656 84.703125 -126.640625 C 80.472656 -127.679688 75.289062 -128.203125 69.15625 -128.203125 C 61.3125 -128.203125 54.320312 -125.960938 48.1875 -121.484375 C 42.0625 -117.015625 37.25 -110.425781 33.75 -101.71875 C 30.257812 -93.007812 28.515625 -82.585938 28.515625 -70.453125 C 28.515625 -58.921875 30.046875 -48.429688 33.109375 -38.984375 C 36.171875 -29.546875 40.828125 -22.035156 47.078125 -16.453125 C 53.335938 -10.878906 61.066406 -8.09375 70.265625 -8.09375 C 76.765625 -8.09375 81.757812 -8.644531 85.25 -9.75 C 88.75 -10.851562 91.722656 -12.445312 94.171875 -14.53125 L 101.90625 -32.5625 L 113.484375 -31.078125 L 109.078125 -4.96875 C 106.503906 -4.84375 102.703125 -3.984375 97.671875 -2.390625 C 93.253906 -1.046875 88.988281 0.0195312 84.875 0.8125 C 80.769531 1.613281 75.65625 2.015625 69.53125 2.015625 Z M 69.53125 2.015625 "/></g></g></g><g fill="#c84557" fill-opacity="1"><g transform="translate(537.890368, 469.945163)"><g><path d="M 53.34375 -126.921875 L 21.703125 -125.8125 L 15.265625 -87.375 L 3.125 -87.375 L 6.25 -136.671875 L 120.84375 -136.671875 L 123.046875 -87.375 L 111.46875 -87.375 L 105.390625 -125.8125 L 73.578125 -126.921875 L 73.578125 -10.859375 L 99.6875 -9.015625 L 99.6875 0 L 29.4375 0 L 29.4375 -9.015625 L 53.34375 -10.859375 Z M 53.34375 -126.921875 "/></g></g></g><g fill="#c84557" fill-opacity="1"><g transform="translate(665.175119, 469.945163)"><g><path d="M 53.34375 -126.921875 L 21.703125 -125.8125 L 15.265625 -87.375 L 3.125 -87.375 L 6.25 -136.671875 L 120.84375 -136.671875 L 123.046875 -87.375 L 111.46875 -87.375 L 105.390625 -125.8125 L 73.578125 -126.921875 L 73.578125 -10.859375 L 99.6875 -9.015625 L 99.6875 0 L 29.4375 0 L 29.4375 -9.015625 L 53.34375 -10.859375 Z M 53.34375 -126.921875 "/></g></g></g></svg>